<svg width="422" height="672" viewBox="0 0 422 672" fill="none" xmlns="http://www.w3.org/2000/svg">
<g filter="url(#filter0_d_4212_2)">
<path d="M23 450.5C23 346.947 106.947 263 210.5 263H378.095C389.088 263 398 271.912 398 282.905V450.5C398 554.053 314.053 638 210.5 638C106.947 638 23 554.053 23 450.5Z" fill="#57D9A6"/>
</g>
<g filter="url(#filter1_d_4212_2)">
<path d="M144 87C144 45.5786 177.579 12 219 12H286.038C290.435 12 294 15.5647 294 19.9621V87C294 128.421 260.421 162 219 162C177.579 162 144 128.421 144 87Z" fill="#57D9A6"/>
</g>
<g filter="url(#filter2_d_4212_2)">
<path d="M6 11.3081C6 8.3765 8.3765 6 11.3081 6H56C83.6142 6 106 28.3858 106 56C106 83.6142 83.6142 106 56 106C28.3858 106 6 83.6142 6 56V11.3081Z" fill="#57D9A6"/>
</g>
<defs>
<filter id="filter0_d_4212_2" x="17" y="257" width="415" height="415" filterUnits="userSpaceOnUse" color-interpolation-filters="sRGB">
<feFlood flood-opacity="0" result="BackgroundImageFix"/>
<feColorMatrix in="SourceAlpha" type="matrix" values="0 0 0 0 0 0 0 0 0 0 0 0 0 0 0 0 0 0 127 0" result="hardAlpha"/>
<feOffset dx="14" dy="14"/>
<feGaussianBlur stdDeviation="10"/>
<feColorMatrix type="matrix" values="0 0 0 0 0.109804 0 0 0 0 0.109804 0 0 0 0 0.2 0 0 0 0.5 0"/>
<feBlend mode="normal" in2="BackgroundImageFix" result="effect1_dropShadow_4212_2"/>
<feBlend mode="normal" in="SourceGraphic" in2="effect1_dropShadow_4212_2" result="shape"/>
</filter>
<filter id="filter1_d_4212_2" x="138" y="6" width="190" height="190" filterUnits="userSpaceOnUse" color-interpolation-filters="sRGB">
<feFlood flood-opacity="0" result="BackgroundImageFix"/>
<feColorMatrix in="SourceAlpha" type="matrix" values="0 0 0 0 0 0 0 0 0 0 0 0 0 0 0 0 0 0 127 0" result="hardAlpha"/>
<feOffset dx="14" dy="14"/>
<feGaussianBlur stdDeviation="10"/>
<feColorMatrix type="matrix" values="0 0 0 0 0.109804 0 0 0 0 0.109804 0 0 0 0 0.2 0 0 0 0.5 0"/>
<feBlend mode="normal" in2="BackgroundImageFix" result="effect1_dropShadow_4212_2"/>
<feBlend mode="normal" in="SourceGraphic" in2="effect1_dropShadow_4212_2" result="shape"/>
</filter>
<filter id="filter2_d_4212_2" x="0" y="0" width="140" height="140" filterUnits="userSpaceOnUse" color-interpolation-filters="sRGB">
<feFlood flood-opacity="0" result="BackgroundImageFix"/>
<feColorMatrix in="SourceAlpha" type="matrix" values="0 0 0 0 0 0 0 0 0 0 0 0 0 0 0 0 0 0 127 0" result="hardAlpha"/>
<feOffset dx="14" dy="14"/>
<feGaussianBlur stdDeviation="10"/>
<feColorMatrix type="matrix" values="0 0 0 0 0.109804 0 0 0 0 0.109804 0 0 0 0 0.2 0 0 0 0.5 0"/>
<feBlend mode="normal" in2="BackgroundImageFix" result="effect1_dropShadow_4212_2"/>
<feBlend mode="normal" in="SourceGraphic" in2="effect1_dropShadow_4212_2" result="shape"/>
</filter>
</defs>
</svg>
