<svg width="541" height="415" viewBox="0 0 541 415" fill="none" xmlns="http://www.w3.org/2000/svg">
<g filter="url(#filter0_d_4227_3)">
<path d="M132 193.5C132 89.9466 215.947 6 319.5 6H495.361C501.789 6 507 11.211 507 17.6392V193.5C507 297.053 423.053 381 319.5 381V381C215.947 381 132 297.053 132 193.5V193.5Z" fill="#57D9A6"/>
</g>
<path d="M0 111C17.85 111 17.85 122.5 35.7 122.5C53.55 122.5 53.54 111 71.39 111C89.24 111 89.24 122.5 107.08 122.5C124.92 122.5 124.93 111 142.77 111C160.61 111 160.62 122.5 178.47 122.5C196.32 122.5 196.32 111 214.16 111C232 111 232 122.5 249.86 122.5C267.72 122.5 267.71 111 285.56 111C303.41 111 303.41 122.5 321.26 122.5C339.11 122.5 339.11 111 357 111" stroke="#4E4E65" stroke-width="2" stroke-miterlimit="10"/>
<path d="M0 130.5C17.85 130.5 17.85 142 35.7 142C53.55 142 53.54 130.5 71.39 130.5C89.24 130.5 89.24 142 107.08 142C124.92 142 124.93 130.5 142.77 130.5C160.61 130.5 160.62 142 178.47 142C196.32 142 196.32 130.5 214.16 130.5C232 130.5 232 142 249.86 142C267.72 142 267.71 130.5 285.56 130.5C303.41 130.5 303.41 142 321.26 142C339.11 142 339.11 130.5 357 130.5" stroke="#4E4E65" stroke-width="2" stroke-miterlimit="10"/>
<path d="M0 150C17.85 150 17.85 161.5 35.7 161.5C53.55 161.5 53.54 150 71.39 150C89.24 150 89.24 161.5 107.08 161.5C124.92 161.5 124.93 150 142.77 150C160.61 150 160.62 161.5 178.47 161.5C196.32 161.5 196.32 150 214.16 150C232 150 232 161.5 249.86 161.5C267.72 161.5 267.71 150 285.56 150C303.41 150 303.41 161.5 321.26 161.5C339.11 161.5 339.11 150 357 150" stroke="#4E4E65" stroke-width="2" stroke-miterlimit="10"/>
<path d="M0 169.5C17.85 169.5 17.85 181 35.7 181C53.55 181 53.54 169.5 71.39 169.5C89.24 169.5 89.24 181 107.08 181C124.92 181 124.93 169.5 142.77 169.5C160.61 169.5 160.62 181 178.47 181C196.32 181 196.32 169.5 214.16 169.5C232 169.5 232 181 249.86 181C267.72 181 267.71 169.5 285.56 169.5C303.41 169.5 303.41 181 321.26 181C339.11 181 339.11 169.5 357 169.5" stroke="#4E4E65" stroke-width="2" stroke-miterlimit="10"/>
<path d="M0 189C17.85 189 17.85 200.5 35.7 200.5C53.55 200.5 53.54 189 71.39 189C89.24 189 89.24 200.5 107.08 200.5C124.92 200.5 124.93 189 142.77 189C160.61 189 160.62 200.5 178.47 200.5C196.32 200.5 196.32 189 214.16 189C232 189 232 200.5 249.86 200.5C267.72 200.5 267.71 189 285.56 189C303.41 189 303.41 200.5 321.26 200.5C339.11 200.5 339.11 189 357 189" stroke="#4E4E65" stroke-width="2" stroke-miterlimit="10"/>
<path d="M0 208.5C17.85 208.5 17.85 220 35.7 220C53.55 220 53.54 208.5 71.39 208.5C89.24 208.5 89.24 220 107.08 220C124.92 220 124.93 208.5 142.77 208.5C160.61 208.5 160.62 220 178.47 220C196.32 220 196.32 208.5 214.16 208.5C232 208.5 232 220 249.86 220C267.72 220 267.71 208.5 285.56 208.5C303.41 208.5 303.41 220 321.26 220C339.11 220 339.11 208.5 357 208.5" stroke="#4E4E65" stroke-width="2" stroke-miterlimit="10"/>
<path d="M0 228C17.85 228 17.85 239.5 35.7 239.5C53.55 239.5 53.54 228 71.39 228C89.24 228 89.24 239.5 107.08 239.5C124.92 239.5 124.93 228 142.77 228C160.61 228 160.62 239.5 178.47 239.5C196.32 239.5 196.32 228 214.16 228C232 228 232 239.5 249.86 239.5C267.72 239.5 267.71 228 285.56 228C303.41 228 303.41 239.5 321.26 239.5C339.11 239.5 339.11 228 357 228" stroke="#4E4E65" stroke-width="2" stroke-miterlimit="10"/>
<path d="M0 247.5C17.85 247.5 17.85 259 35.7 259C53.55 259 53.54 247.5 71.39 247.5C89.24 247.5 89.24 259 107.08 259C124.92 259 124.93 247.5 142.77 247.5C160.61 247.5 160.62 259 178.47 259C196.32 259 196.32 247.5 214.16 247.5C232 247.5 232 259 249.86 259C267.72 259 267.71 247.5 285.56 247.5C303.41 247.5 303.41 259 321.26 259C339.11 259 339.11 247.5 357 247.5" stroke="#4E4E65" stroke-width="2" stroke-miterlimit="10"/>
<path d="M0 267C17.85 267 17.85 278.5 35.7 278.5C53.55 278.5 53.54 267 71.39 267C89.24 267 89.24 278.5 107.08 278.5C124.92 278.5 124.93 267 142.77 267C160.61 267 160.62 278.5 178.47 278.5C196.32 278.5 196.32 267 214.16 267C232 267 232 278.5 249.86 278.5C267.72 278.5 267.71 267 285.56 267C303.41 267 303.41 278.5 321.26 278.5C339.11 278.5 339.11 267 357 267" stroke="#4E4E65" stroke-width="2" stroke-miterlimit="10"/>
<path d="M0 286.5C17.85 286.5 17.85 298 35.7 298C53.55 298 53.54 286.5 71.39 286.5C89.24 286.5 89.24 298 107.08 298C124.92 298 124.93 286.5 142.77 286.5C160.61 286.5 160.62 298 178.47 298C196.32 298 196.32 286.5 214.16 286.5C232 286.5 232 298 249.86 298C267.72 298 267.71 286.5 285.56 286.5C303.41 286.5 303.41 298 321.26 298C339.11 298 339.11 286.5 357 286.5" stroke="#4E4E65" stroke-width="2" stroke-miterlimit="10"/>
<path d="M0 306C17.85 306 17.85 317.5 35.7 317.5C53.55 317.5 53.54 306 71.39 306C89.24 306 89.24 317.5 107.08 317.5C124.92 317.5 124.93 306 142.77 306C160.61 306 160.62 317.5 178.47 317.5C196.32 317.5 196.32 306 214.16 306C232 306 232 317.5 249.86 317.5C267.72 317.5 267.71 306 285.56 306C303.41 306 303.41 317.5 321.26 317.5C339.11 317.5 339.11 306 357 306" stroke="#4E4E65" stroke-width="2" stroke-miterlimit="10"/>
<path d="M0 325.5C17.85 325.5 17.85 337 35.7 337C53.55 337 53.54 325.5 71.39 325.5C89.24 325.5 89.24 337 107.08 337C124.92 337 124.93 325.5 142.77 325.5C160.61 325.5 160.62 337 178.47 337C196.32 337 196.32 325.5 214.16 325.5C232 325.5 232 337 249.86 337C267.72 337 267.71 325.5 285.56 325.5C303.41 325.5 303.41 337 321.26 337C339.11 337 339.11 325.5 357 325.5" stroke="#4E4E65" stroke-width="2" stroke-miterlimit="10"/>
<path d="M0 345C17.85 345 17.85 356.5 35.7 356.5C53.55 356.5 53.54 345 71.39 345C89.24 345 89.24 356.5 107.08 356.5C124.92 356.5 124.93 345 142.77 345C160.61 345 160.62 356.5 178.47 356.5C196.32 356.5 196.32 345 214.16 345C232 345 232 356.5 249.86 356.5C267.72 356.5 267.71 345 285.56 345C303.41 345 303.41 356.5 321.26 356.5C339.11 356.5 339.11 345 357 345" stroke="#4E4E65" stroke-width="2" stroke-miterlimit="10"/>
<defs>
<filter id="filter0_d_4227_3" x="126" y="0" width="415" height="415" filterUnits="userSpaceOnUse" color-interpolation-filters="sRGB">
<feFlood flood-opacity="0" result="BackgroundImageFix"/>
<feColorMatrix in="SourceAlpha" type="matrix" values="0 0 0 0 0 0 0 0 0 0 0 0 0 0 0 0 0 0 127 0" result="hardAlpha"/>
<feOffset dx="14" dy="14"/>
<feGaussianBlur stdDeviation="10"/>
<feColorMatrix type="matrix" values="0 0 0 0 0.109804 0 0 0 0 0.109804 0 0 0 0 0.2 0 0 0 0.5 0"/>
<feBlend mode="normal" in2="BackgroundImageFix" result="effect1_dropShadow_4227_3"/>
<feBlend mode="normal" in="SourceGraphic" in2="effect1_dropShadow_4227_3" result="shape"/>
</filter>
</defs>
</svg>
