<svg width="223" height="204" viewBox="0 0 223 204" fill="none" xmlns="http://www.w3.org/2000/svg">
<g filter="url(#filter0_d_4227_4)">
<path d="M6 56.3697C6 52.8518 8.8518 50 12.3697 50H66C99.1371 50 126 76.8629 126 110C126 143.137 99.1371 170 66 170C32.8629 170 6 143.137 6 110V56.3697Z" fill="#57D9A6"/>
</g>
<g filter="url(#filter1_d_4227_4)">
<path d="M89 56C89 28.3858 111.386 6 139 6H183.692C186.623 6 189 8.3765 189 11.3081V56C189 83.6142 166.614 106 139 106C111.386 106 89 83.6142 89 56Z" fill="#57D9A6"/>
</g>
<defs>
<filter id="filter0_d_4227_4" x="0" y="44" width="160" height="160" filterUnits="userSpaceOnUse" color-interpolation-filters="sRGB">
<feFlood flood-opacity="0" result="BackgroundImageFix"/>
<feColorMatrix in="SourceAlpha" type="matrix" values="0 0 0 0 0 0 0 0 0 0 0 0 0 0 0 0 0 0 127 0" result="hardAlpha"/>
<feOffset dx="14" dy="14"/>
<feGaussianBlur stdDeviation="10"/>
<feColorMatrix type="matrix" values="0 0 0 0 0.109804 0 0 0 0 0.109804 0 0 0 0 0.2 0 0 0 0.5 0"/>
<feBlend mode="normal" in2="BackgroundImageFix" result="effect1_dropShadow_4227_4"/>
<feBlend mode="normal" in="SourceGraphic" in2="effect1_dropShadow_4227_4" result="shape"/>
</filter>
<filter id="filter1_d_4227_4" x="83" y="0" width="140" height="140" filterUnits="userSpaceOnUse" color-interpolation-filters="sRGB">
<feFlood flood-opacity="0" result="BackgroundImageFix"/>
<feColorMatrix in="SourceAlpha" type="matrix" values="0 0 0 0 0 0 0 0 0 0 0 0 0 0 0 0 0 0 127 0" result="hardAlpha"/>
<feOffset dx="14" dy="14"/>
<feGaussianBlur stdDeviation="10"/>
<feColorMatrix type="matrix" values="0 0 0 0 0.109804 0 0 0 0 0.109804 0 0 0 0 0.2 0 0 0 0.5 0"/>
<feBlend mode="normal" in2="BackgroundImageFix" result="effect1_dropShadow_4227_4"/>
<feBlend mode="normal" in="SourceGraphic" in2="effect1_dropShadow_4227_4" result="shape"/>
</filter>
</defs>
</svg>
